<svg xml:space="preserve" viewBox="369.36 378 345.6 349.92" version="1.1" xmlns:xlink="http://www.w3.org/1999/xlink" xmlns="http://www.w3.org/2000/svg" style="max-height: 500px" width="345.6" height="349.92">
<desc>Created with Fabric.js 5.2.4</desc>
<defs>
</defs>
<rect fill="transparent" height="100%" width="100%" y="0" x="0"/>
<g id="64cae863-3a1e-4d57-90b9-d6921c6009ac" transform="matrix(1 0 0 1 540 540)">
<rect height="1080" width="1080" ry="0" rx="0" y="-540" x="-540" style="stroke: none; stroke-width: 1; stroke-dasharray: none; stroke-linecap: butt; stroke-dashoffset: 0; stroke-linejoin: miter; stroke-miterlimit: 4; fill: rgb(255,255,255); fill-rule: nonzero; opacity: 1; visibility: hidden;"/>
</g>
<g id="d474a752-55ac-46d9-9d85-cad906b2633c" transform="matrix(1 0 0 1 540 540)">
</g>
<g transform="matrix(1 0 0 1 540 540)">
<g style="">
		<g transform="matrix(1 0 0 1 0 0)">
<path stroke-linecap="round" d="M 97.137466 357.401215 C 92.389931 357.892883 90.584732 356.131317 90.793571 351.721252 C 91.36013 339.757141 89.79187 327.728912 91.780792 315.804504 C 92.636086 310.676605 94.181877 305.765778 96.920067 301.291107 C 101.91671 293.125763 105.169556 284.719147 102.028603 274.870239 C 100.828308 271.106537 100.69014 267.010193 99.99025 263.079285 C 99.020996 257.635559 97.788261 256.795563 92.655479 258.578217 C 80.205414 262.902283 67.329353 265.678192 54.665874 269.223511 C 53.703705 269.492889 52.736408 269.751831 51.759548 269.959412 C 48.984924 270.549011 46.369694 270.479034 44.746868 267.665131 C 42.957561 264.562469 44.568863 262.216064 46.725922 260.16571 C 51.435127 255.689407 56.201855 251.273132 60.974499 246.864166 C 74.052811 234.782318 87.146339 222.716949 100.528725 210.373077 C 97.882988 208.342651 95.185425 208.067886 92.717094 207.418442 C 71.945518 201.953171 51.147259 196.589325 30.356686 191.196274 C 30.034348 191.112656 29.704277 191.057907 29.383678 190.968628 C 26.356091 190.125504 23.48987 188.942764 23.483343 185.201324 C 23.476799 181.45166 26.224699 180.277283 29.373957 179.550201 C 47.542049 175.355728 65.701302 171.122833 83.859116 166.883987 C 89.497551 165.567719 95.122185 164.192322 101.762901 162.602219 C 97.338196 158.226242 93.607292 154.509033 89.846634 150.822174 C 76.519814 137.756882 63.175774 124.709137 49.856281 111.636391 C 47.48394 109.307999 44.495937 107.00296 46.990898 103.152374 C 49.355217 99.503418 52.788895 100.767014 56.00935 101.711639 C 77.265511 107.946449 98.510986 114.217819 119.777985 120.415375 C 121.454002 120.903793 123.120384 122.054359 125.338608 121.036911 C 125.477745 117.252678 123.960892 113.71476 122.984741 110.122856 C 117.743492 90.836784 112.402588 71.57766 107.038811 52.325184 C 106.139824 49.098392 105.538895 45.983383 108.893173 43.854698 C 112.473312 41.58268 114.838699 44.046883 117.068512 46.373734 C 131.477875 61.410202 145.88475 76.44928 160.227173 91.549484 C 162.478928 93.920219 164.398727 96.606239 166.472015 99.146469 C 167.082352 98.800247 167.692673 98.454018 168.302994 98.107796 C 170.113266 91.60038 171.961716 85.103302 173.726273 78.583511 C 178.119476 62.351177 182.474548 46.108524 186.844666 29.869944 C 186.887955 29.709105 186.920959 29.545202 186.970413 29.386366 C 187.917068 26.346258 188.610443 22.942152 192.762375 22.940252 C 196.811844 22.9384 197.913132 26.051037 198.682953 29.248159 C 201.565033 41.217819 204.389908 53.201248 207.268982 65.171631 C 209.95137 76.324242 212.67543 87.466835 215.513321 99.158348 C 218.519562 97.559105 220.61348 95.538185 222.693649 93.472107 C 237.708664 78.558617 252.735733 63.657265 267.764771 48.757904 C 269.655121 46.883854 271.45105 44.74522 274.572418 45.387943 C 278.029144 46.099712 279.472443 49.353001 278.14444 53.734497 C 272.348755 72.856171 266.500946 91.962029 260.685089 111.077591 C 259.529999 114.874199 258.432312 118.688263 257.309753 122.488838 C 259.564514 124.114944 261.440308 122.802963 263.20929 122.33847 C 284.466003 116.756889 305.698761 111.083984 326.938263 105.436829 C 327.903503 105.180199 328.885864 104.98143 329.839172 104.687469 C 332.780609 103.780464 335.181274 104.495712 336.643402 107.246529 C 338.030457 109.856178 337.022278 112.066109 335.00946 113.943039 C 326.480591 121.896156 317.953613 129.851257 309.423584 137.803146 C 299.941162 146.642883 290.456238 155.479919 280.179352 165.05719 C 290.523682 167.784286 299.935577 170.280273 309.35553 172.745468 C 323.37265 176.413773 337.390076 180.081253 351.419952 183.700272 C 354.627533 184.527649 357.883881 185.517548 357.93219 189.451126 C 357.984833 193.733536 354.505157 194.582764 351.112213 195.371582 C 328.576721 200.61087 306.053345 205.902252 283.527313 211.182236 C 282.744446 211.365738 281.975433 211.608109 281.179688 211.828644 C 280.787415 214.524414 282.943939 215.446136 284.246185 216.726822 C 300.16452 232.381561 316.159943 247.95784 332.108032 263.582397 C 335.963135 267.359283 336.155518 270.963989 332.776764 273.187836 C 330.752228 274.520355 328.709412 274.150909 326.550293 273.505859 C 317.933716 270.931519 309.257111 268.552887 300.675812 265.868225 C 296.917511 264.692444 294.869202 265.579254 293.327057 269.322784 C 290.561218 276.036804 289.652405 282.243927 291.264771 289.867157 C 294.203339 303.760468 294.677368 318.268982 292.90451 332.381226 C 292.053253 339.157227 291.421448 345.855804 291.439148 352.621765 C 291.448914 356.350433 290.146973 357.510986 286.468964 357.473297 C 270.805298 357.312775 255.119904 356.916168 239.478836 357.531403 C 222.336136 358.205627 205.184402 357.781372 188.079849 357.666534 C 157.926514 357.464142 127.770775 357.740112 97.137466 357.401215 M 266.273682 62.494099 C 264.316833 62.901123 263.378845 64.606613 262.120117 65.853729 C 248.034378 79.809731 233.981766 93.799194 219.932755 107.792221 C 217.88942 109.827423 215.870361 111.926682 212.595001 110.987373 C 209.307159 110.044502 208.731445 107.108711 208.057739 104.358307 C 206.552475 98.213242 205.147339 92.043739 203.671341 85.891403 C 200.146576 71.199265 196.604416 56.511311 192.768188 40.570503 C 191.98465 43.189686 191.544601 44.54797 191.171616 45.924427 C 185.903687 65.365295 180.663391 84.813675 175.374695 104.248886 C 173.302521 111.863853 169.355484 112.924141 163.793472 107.223412 C 155.301208 98.519379 146.952774 89.674957 138.546814 80.886765 C 132.151062 74.200211 125.760788 67.5084 119.368088 60.818928 C 118.826851 63.42556 119.31282 65.445023 119.866188 67.445839 C 125.057785 86.217125 130.302933 104.97374 135.436569 123.760826 C 137.100006 129.848358 133.654938 133.211639 127.616089 131.507858 C 121.366791 129.74469 115.157135 127.841042 108.929764 126.000145 C 93.811272 121.530922 78.692558 117.062447 63.303471 112.513718 C 63.545864 113.256096 63.554089 113.639801 63.750092 113.830544 C 79.029884 128.700027 94.319412 143.559525 109.62365 158.403839 C 111.704071 160.421753 113.771324 162.466888 112.953407 165.708939 C 112.177589 168.784134 109.514786 169.537857 106.867744 170.154175 C 99.412704 171.889999 91.947815 173.583466 84.492226 175.316986 C 70.597992 178.547592 56.707588 181.794693 41.618134 185.314224 C 44.364914 186.096329 45.915462 186.570236 47.482944 186.979218 C 67.140633 192.108429 86.809982 197.193268 106.455353 202.369156 C 113.501427 204.225571 114.654778 208.329559 109.428482 213.332855 C 102.330597 220.127884 95.003426 226.682892 87.806183 233.374817 C 79.180649 241.39476 70.588394 249.450516 61.981728 257.490753 C 72.204781 255.816864 81.982147 253.468979 91.549278 250.252151 C 100.353699 247.291794 106.613297 251.212402 108.201309 260.406647 C 108.686905 263.21814 109.221497 266.02121 109.73365 268.828125 C 115.418114 257.330078 120.04258 245.758987 124.841629 234.260757 C 126.285088 230.802353 127.007919 227.337936 126.989265 223.597549 C 126.912003 208.100998 126.977654 192.60376 126.922951 177.107025 C 126.908226 172.936508 128.024506 169.315353 130.779083 166.082489 C 135.712936 160.291946 141.903992 156.830566 149.176254 154.747467 C 164.346725 150.401947 179.894165 148.618179 195.541672 148.387024 C 205.468674 148.240356 215.536469 148.924927 224.961624 152.962784 C 232.966568 156.392212 237.423004 161.996475 237.121994 171.082016 C 236.879349 178.405746 237.171326 185.745758 237.04393 193.075363 C 236.98381 196.534515 237.796524 199.524185 239.683121 202.475372 C 248.566742 216.371994 257.281281 230.376633 266.076935 244.32962 C 271.644012 253.160965 277.24762 261.969299 282.830811 270.781647 C 284.562622 269.831726 284.716797 268.396301 285.223663 267.230316 C 289.746246 256.826752 293.860291 254.958206 304.7948 258.3367 C 308.68866 259.539825 312.620728 260.619202 316.979584 261.883911 C 316.26413 259.202484 314.638306 258.209808 313.368134 256.963562 C 299.217468 243.079636 284.997864 229.265488 270.910187 215.318069 C 266.187439 210.642334 267.341766 206.501328 273.723297 204.810959 C 279.352478 203.319885 285.061737 202.131042 290.735352 200.80751 C 306.539612 197.120743 322.343719 193.433319 338.147888 189.746155 C 336.120667 188.35434 334.083588 187.768661 332.033112 187.23436 C 312.862427 182.239136 293.67627 177.302368 274.524475 172.23584 C 268.111359 170.539276 266.954895 166.331116 271.565094 161.734848 C 275.338318 157.973038 279.286682 154.385315 283.195496 150.761459 C 295.480957 139.371597 307.784332 128.001114 321.146759 115.636795 C 298.963745 121.535027 278.241119 127.059158 257.507538 132.542023 C 254.50528 133.335968 251.375519 134.794098 248.5858 132.005798 C 245.735535 129.156967 247.423553 126.133202 248.328354 123.144417 C 254.40506 103.07151 260.475464 82.996689 266.273682 62.494099 M 108.044182 300.534729 C 101.642395 306.778961 100.121826 314.885529 99.244133 323.286346 C 98.827194 327.2771 101.890144 328.212799 104.391037 329.744324 C 107.146965 331.432068 108.254883 328.975983 109.726067 327.597198 C 111.18174 326.232971 112.470207 324.692261 113.875519 323.272003 C 119.679588 317.40625 124.177589 317.400909 130.131546 323.226593 C 138.173767 331.095551 138.173752 331.095551 147.239883 324.65564 C 152.210587 321.124847 156.135864 320.442383 159.839874 324.5224 C 165.832779 331.123596 171.575241 331.385437 178.250931 326.248627 C 178.379974 326.149384 178.546783 326.09668 178.700012 326.031799 C 185.449844 323.172607 191.766785 326.994141 192.167252 334.300812 C 192.358414 337.78833 192.311798 341.296997 192.200211 344.790527 C 192.104248 347.794952 193.431366 349.006805 196.377411 348.934113 C 200.205444 348.83963 204.037964 348.933105 207.868546 348.934174 C 220.217392 348.937592 220.217407 348.935516 220.590469 336.670044 C 220.874252 327.340607 226.239792 323.613495 234.346283 328.256989 C 241.970795 332.624359 248.422714 332.397919 255.310486 327.356812 C 260.013245 323.914886 265.119904 323.844635 270.421997 326.401215 C 273.558624 327.913666 276.947937 328.898315 280.210144 330.155273 C 282.908813 331.195099 284.829193 330.94516 284.963043 327.473663 C 285.297607 318.798615 285.210876 310.176636 281.85437 301.94989 C 280.30658 298.156342 277.763489 295.659851 273.577606 294.789215 C 267.00238 293.4216 260.998108 290.551086 255.095352 287.407013 C 247.769531 283.504883 241.019791 278.689331 233.374039 273.518829 C 232.204102 280.585205 231.18573 286.918762 230.101456 293.241028 C 228.591019 302.048309 224.218613 308.637573 215.657211 312.122772 C 203.080048 317.242706 182.041351 313.104462 174.317902 297.226501 C 171.090714 290.592041 168.496445 283.806549 166.74472 276.665527 C 166.368134 275.130371 166.457016 273.366364 164.770828 272.099854 C 159.58139 276.023712 154.728455 280.343811 148.91774 283.341888 C 139.686096 288.10498 129.853516 291.207672 119.966309 294.173096 C 115.779503 295.428802 111.720749 296.83728 108.044182 300.534729 M 176.270294 189.583282 C 193.515656 183.485748 210.775208 184.818466 227.862808 190.296951 C 228.253311 189.037247 228.518951 188.570862 228.52475 188.101273 C 228.582382 183.442123 228.608627 178.782471 228.62146 174.12291 C 228.649323 164.011688 226.651871 161.692062 216.61969 159.017441 C 206.288879 156.263214 195.777435 156.823837 185.347183 157.314255 C 172.375946 157.924118 159.538681 159.949265 147.216125 164.291428 C 138.798218 167.25769 135.372223 172.311905 135.357346 181.063782 C 135.342087 190.051331 135.325241 199.039062 135.375427 208.026337 C 135.385208 209.777222 134.889938 211.672943 136.305115 213.329697 C 149.153671 205.051636 160.947433 195.104645 176.270294 189.583282 M 227.386505 204.387726 C 227.966187 200.471054 225.84082 198.572449 222.399948 197.531906 C 205.532059 192.430939 188.928345 192.542435 172.705261 200.023712 C 165.016129 203.56955 163.836197 205.932755 164.562134 214.472824 C 165.729721 228.208786 170.240509 240.751251 177.625214 252.319565 C 179.202896 254.791016 180.452347 257.539032 183.273865 259.544586 C 188.661423 252.093399 197.105789 250.331253 204.779541 248.668198 C 213.236313 246.835419 220.558334 251.644928 226.048615 258.229614 C 227.754715 256.787872 227.715546 255.424591 227.759445 254.097702 C 228.07312 244.617737 229.0802 235.161484 228.666809 225.656326 C 228.130829 213.332397 228.634399 213.549973 214.956802 214.677094 C 214.629196 214.704102 214.314407 214.86705 213.986252 214.909821 C 211.09314 215.28685 210.032211 216.957321 210.372559 219.781921 C 210.889832 224.074615 211.223022 228.390823 211.800827 232.674606 C 212.773727 239.887756 207.826706 244.925995 200.510513 244.193787 C 198.110107 243.953537 196.813568 242.967331 196.794632 240.486053 C 196.777313 238.216263 196.791138 235.902756 199.89032 235.826233 C 203.326828 235.741409 203.375565 233.833405 203.031143 231.113235 C 202.446854 226.498489 202.072037 221.841797 201.915329 217.192429 C 201.740631 212.008789 204.473129 208.747864 209.391647 207.295883 C 212.93042 206.251205 216.55069 205.862915 220.244904 205.827728 C 222.510513 205.806122 224.919525 206.62999 227.386505 204.387726 M 149.088928 214.647263 C 142.269363 218.734207 137.672165 224.605026 134.723602 231.962341 C 128.108429 248.468582 121.33313 264.910583 114.682999 281.402954 C 114.097794 282.854218 112.900093 284.308441 114.173943 286.706543 C 118.914795 286.283447 123.412376 284.140411 128.067184 282.735809 C 139.65863 279.238098 150.132767 273.93277 159.208618 265.573425 C 164.325867 260.860199 163.461533 255.900345 163.075607 250.204422 C 162.759308 245.535889 158.994705 245.563126 156.476471 243.794907 C 155.932693 243.413055 155.343826 243.095093 154.802612 242.709915 C 145.720947 236.24614 145.268311 223.890442 153.998047 217.076324 C 156.154282 215.39325 156.184586 213.650833 155.452606 211.448425 C 155.028122 211.448425 154.635956 211.328629 154.391052 211.467865 C 152.805023 212.369568 151.251099 213.327713 149.088928 214.647263 M 240.362289 268.085876 C 253.090881 277.280731 266.343964 285.412018 283.619324 288.901062 C 268.844696 262.818146 252.356796 239.022888 237.31749 214.117188 C 235.983521 215.553955 236.486053 216.736984 236.592575 217.814163 C 237.926636 231.30365 236.880173 244.774551 235.711349 258.180328 C 235.321945 262.646576 235.815735 265.601318 240.362289 268.085876 M 224.133636 276.912323 C 224.353317 275.781403 224.27095 274.711151 222.745209 275.292175 C 214.342575 278.492157 205.598831 276.877197 197.003281 277.122223 C 189.755569 277.328857 183.738144 274.399384 179.084229 268.792267 C 177.327988 266.676361 175.602905 264.534607 173.558304 262.030762 C 173.087112 269.601318 176.722626 282.675842 180.729065 291.408661 C 184.60228 299.851074 191.267212 303.996613 199.963394 305.535339 C 210.557999 307.409973 219.606491 302.321106 221.456146 293.341949 C 222.528702 288.135193 223.166931 282.83902 224.133636 276.912323 M 183.81691 339.785858 C 183.575623 337.899567 184.491318 335.790192 182.727371 334.070709 C 180.781097 333.98645 179.290329 335.156586 177.694061 335.955536 C 166.902069 341.356903 166.829956 341.453491 157.789215 333.366852 C 155.099289 330.960785 152.892975 330.232483 150.172195 333.015533 C 149.249695 333.959106 148.109116 334.68924 147.069778 335.51886 C 138.69371 342.204834 137.216583 342.081696 129.565811 334.539215 C 120.336906 325.440948 123.14006 325.778473 114.084099 335.03067 C 108.128677 341.115173 108.331848 341.307281 100.875542 337.919037 C 100.639992 337.811981 100.260689 338.02124 99.956192 338.081482 C 97.680656 347.976227 98.387634 348.937378 107.947617 348.940826 C 123.914658 348.946564 139.881699 348.949646 155.84874 348.95163 C 163.000641 348.952515 170.163956 348.701294 177.300476 349.031525 C 182.157791 349.256287 184.673767 347.917267 183.824493 342.666473 C 183.719666 342.01825 183.811508 341.338196 183.81691 339.785858 M 229.076996 341.661407 C 229.175858 348.881683 229.175827 348.898651 236.150986 348.90918 C 249.9478 348.929993 263.74472 348.95871 277.541443 348.923584 C 282.540497 348.910858 283.59848 347.445862 282.926483 342.529633 C 282.61911 340.281128 281.120819 339.694305 279.444946 338.823792 C 269.482269 333.648621 259.740601 331.441772 249.992859 339.491791 C 247.083954 341.894073 243.498322 341.527832 240.068878 339.889557 C 236.8284 338.341492 233.494873 336.988159 230.149948 335.526337 C 228.850021 337.497498 229.215347 339.195648 229.076996 341.661407 M 216.762756 260.643707 C 208.276794 254.707962 193.878952 257.793457 189.823624 266.416809 C 195.722015 270.000824 215.363449 269.806824 220.372269 266.069672 C 220.193024 263.909637 218.394165 262.74115 216.762756 260.643707 M 158.603043 234.61554 C 160.466568 231.364258 157.578888 229.095718 156.886215 226.361221 C 155.821167 229.244629 156.015121 231.921417 158.603043 234.61554 z" transform="translate(-190.71, -190.42)" style="stroke: none; stroke-width: 1; stroke-dasharray: none; stroke-linecap: butt; stroke-dashoffset: 0; stroke-linejoin: miter; stroke-miterlimit: 4; fill: rgb(255,255,255); fill-rule: nonzero; opacity: 1;"/>
</g>
		<g transform="matrix(1 0 0 1 -31.04 114.99)">
<path stroke-linecap="round" d="M 170.937744 319.884369 C 158.582413 316.015472 151.934891 306.561737 146.033188 296.336823 C 144.831055 294.254028 145.626541 292.885223 147.651855 291.982117 C 149.643341 291.094055 151.613632 289.933167 153.332352 292.503632 C 155.456558 295.680511 157.541946 298.895386 159.866135 301.923431 C 162.719421 305.640808 166.133972 308.772278 170.310699 311.045135 C 174.865265 313.52359 175.020554 315.278839 170.937744 319.884369 z" transform="translate(-159.67, -305.41)" style="stroke: none; stroke-width: 1; stroke-dasharray: none; stroke-linecap: butt; stroke-dashoffset: 0; stroke-linejoin: miter; stroke-miterlimit: 4; fill: rgb(255,255,255); fill-rule: nonzero; opacity: 1;"/>
</g>
		<g transform="matrix(1 0 0 1 52.09 118.21)">
<path stroke-linecap="round" d="M 232.356796 319.564453 C 230.057098 315.767822 229.950165 313.007629 234.436325 311.014557 C 239.563599 308.736664 243.335785 304.620728 246.282867 299.929718 C 248.163544 296.936188 249.964645 296.820221 252.7733 298.613617 C 255.954636 300.644897 254.828873 302.518646 253.183182 304.728638 C 249.290756 309.955597 245.090256 314.865387 239.254608 318.014709 C 237.250076 319.096466 235.198303 320.379425 232.356796 319.564453 z" transform="translate(-242.8, -308.63)" style="stroke: none; stroke-width: 1; stroke-dasharray: none; stroke-linecap: butt; stroke-dashoffset: 0; stroke-linejoin: miter; stroke-miterlimit: 4; fill: rgb(255,255,255); fill-rule: nonzero; opacity: 1;"/>
</g>
		<g transform="matrix(1 0 0 1 -6.89 25.74)">
<path stroke-linecap="round" d="M 179.176178 220.356033 C 175.247025 220.564835 174.57576 218.484406 174.652542 215.609161 C 174.729416 212.730179 176.495026 211.97554 178.908585 211.957062 C 182.216415 211.931717 185.52475 211.95546 188.832764 211.97702 C 191.694061 211.995651 193.055878 213.437546 192.990891 216.313812 C 192.924911 219.233978 191.428925 220.436005 188.583282 220.36171 C 185.60788 220.284012 182.628647 220.353653 179.176178 220.356033 z" transform="translate(-183.82, -216.16)" style="stroke: none; stroke-width: 1; stroke-dasharray: none; stroke-linecap: butt; stroke-dashoffset: 0; stroke-linejoin: miter; stroke-miterlimit: 4; fill: rgb(255,255,255); fill-rule: nonzero; opacity: 1;"/>
</g>
</g>
</g>
</svg>