<svg version="1.1" id="Layer_1" xmlns="http://www.w3.org/2000/svg" xmlns:xlink="http://www.w3.org/1999/xlink" x="0px" y="0px"
	 width="100%" viewBox="0 0 368 368" enable-background="new 0 0 368 368" xml:space="preserve">
<path fill="#000000" opacity="1.000000" stroke="none" 
	d="
M97.137466,357.401215 
	C92.389931,357.892883 90.584732,356.131317 90.793571,351.721252 
	C91.360130,339.757141 89.791870,327.728912 91.780792,315.804504 
	C92.636086,310.676605 94.181877,305.765778 96.920067,301.291107 
	C101.916710,293.125763 105.169556,284.719147 102.028603,274.870239 
	C100.828308,271.106537 100.690140,267.010193 99.990250,263.079285 
	C99.020996,257.635559 97.788261,256.795563 92.655479,258.578217 
	C80.205414,262.902283 67.329353,265.678192 54.665874,269.223511 
	C53.703705,269.492889 52.736408,269.751831 51.759548,269.959412 
	C48.984924,270.549011 46.369694,270.479034 44.746868,267.665131 
	C42.957561,264.562469 44.568863,262.216064 46.725922,260.165710 
	C51.435127,255.689407 56.201855,251.273132 60.974499,246.864166 
	C74.052811,234.782318 87.146339,222.716949 100.528725,210.373077 
	C97.882988,208.342651 95.185425,208.067886 92.717094,207.418442 
	C71.945518,201.953171 51.147259,196.589325 30.356686,191.196274 
	C30.034348,191.112656 29.704277,191.057907 29.383678,190.968628 
	C26.356091,190.125504 23.489870,188.942764 23.483343,185.201324 
	C23.476799,181.451660 26.224699,180.277283 29.373957,179.550201 
	C47.542049,175.355728 65.701302,171.122833 83.859116,166.883987 
	C89.497551,165.567719 95.122185,164.192322 101.762901,162.602219 
	C97.338196,158.226242 93.607292,154.509033 89.846634,150.822174 
	C76.519814,137.756882 63.175774,124.709137 49.856281,111.636391 
	C47.483940,109.307999 44.495937,107.002960 46.990898,103.152374 
	C49.355217,99.503418 52.788895,100.767014 56.009350,101.711639 
	C77.265511,107.946449 98.510986,114.217819 119.777985,120.415375 
	C121.454002,120.903793 123.120384,122.054359 125.338608,121.036911 
	C125.477745,117.252678 123.960892,113.714760 122.984741,110.122856 
	C117.743492,90.836784 112.402588,71.577660 107.038811,52.325184 
	C106.139824,49.098392 105.538895,45.983383 108.893173,43.854698 
	C112.473312,41.582680 114.838699,44.046883 117.068512,46.373734 
	C131.477875,61.410202 145.884750,76.449280 160.227173,91.549484 
	C162.478928,93.920219 164.398727,96.606239 166.472015,99.146469 
	C167.082352,98.800247 167.692673,98.454018 168.302994,98.107796 
	C170.113266,91.600380 171.961716,85.103302 173.726273,78.583511 
	C178.119476,62.351177 182.474548,46.108524 186.844666,29.869944 
	C186.887955,29.709105 186.920959,29.545202 186.970413,29.386366 
	C187.917068,26.346258 188.610443,22.942152 192.762375,22.940252 
	C196.811844,22.938400 197.913132,26.051037 198.682953,29.248159 
	C201.565033,41.217819 204.389908,53.201248 207.268982,65.171631 
	C209.951370,76.324242 212.675430,87.466835 215.513321,99.158348 
	C218.519562,97.559105 220.613480,95.538185 222.693649,93.472107 
	C237.708664,78.558617 252.735733,63.657265 267.764771,48.757904 
	C269.655121,46.883854 271.451050,44.745220 274.572418,45.387943 
	C278.029144,46.099712 279.472443,49.353001 278.144440,53.734497 
	C272.348755,72.856171 266.500946,91.962029 260.685089,111.077591 
	C259.529999,114.874199 258.432312,118.688263 257.309753,122.488838 
	C259.564514,124.114944 261.440308,122.802963 263.209290,122.338470 
	C284.466003,116.756889 305.698761,111.083984 326.938263,105.436829 
	C327.903503,105.180199 328.885864,104.981430 329.839172,104.687469 
	C332.780609,103.780464 335.181274,104.495712 336.643402,107.246529 
	C338.030457,109.856178 337.022278,112.066109 335.009460,113.943039 
	C326.480591,121.896156 317.953613,129.851257 309.423584,137.803146 
	C299.941162,146.642883 290.456238,155.479919 280.179352,165.057190 
	C290.523682,167.784286 299.935577,170.280273 309.355530,172.745468 
	C323.372650,176.413773 337.390076,180.081253 351.419952,183.700272 
	C354.627533,184.527649 357.883881,185.517548 357.932190,189.451126 
	C357.984833,193.733536 354.505157,194.582764 351.112213,195.371582 
	C328.576721,200.610870 306.053345,205.902252 283.527313,211.182236 
	C282.744446,211.365738 281.975433,211.608109 281.179688,211.828644 
	C280.787415,214.524414 282.943939,215.446136 284.246185,216.726822 
	C300.164520,232.381561 316.159943,247.957840 332.108032,263.582397 
	C335.963135,267.359283 336.155518,270.963989 332.776764,273.187836 
	C330.752228,274.520355 328.709412,274.150909 326.550293,273.505859 
	C317.933716,270.931519 309.257111,268.552887 300.675812,265.868225 
	C296.917511,264.692444 294.869202,265.579254 293.327057,269.322784 
	C290.561218,276.036804 289.652405,282.243927 291.264771,289.867157 
	C294.203339,303.760468 294.677368,318.268982 292.904510,332.381226 
	C292.053253,339.157227 291.421448,345.855804 291.439148,352.621765 
	C291.448914,356.350433 290.146973,357.510986 286.468964,357.473297 
	C270.805298,357.312775 255.119904,356.916168 239.478836,357.531403 
	C222.336136,358.205627 205.184402,357.781372 188.079849,357.666534 
	C157.926514,357.464142 127.770775,357.740112 97.137466,357.401215 
M266.273682,62.494099 
	C264.316833,62.901123 263.378845,64.606613 262.120117,65.853729 
	C248.034378,79.809731 233.981766,93.799194 219.932755,107.792221 
	C217.889420,109.827423 215.870361,111.926682 212.595001,110.987373 
	C209.307159,110.044502 208.731445,107.108711 208.057739,104.358307 
	C206.552475,98.213242 205.147339,92.043739 203.671341,85.891403 
	C200.146576,71.199265 196.604416,56.511311 192.768188,40.570503 
	C191.984650,43.189686 191.544601,44.547970 191.171616,45.924427 
	C185.903687,65.365295 180.663391,84.813675 175.374695,104.248886 
	C173.302521,111.863853 169.355484,112.924141 163.793472,107.223412 
	C155.301208,98.519379 146.952774,89.674957 138.546814,80.886765 
	C132.151062,74.200211 125.760788,67.508400 119.368088,60.818928 
	C118.826851,63.425560 119.312820,65.445023 119.866188,67.445839 
	C125.057785,86.217125 130.302933,104.973740 135.436569,123.760826 
	C137.100006,129.848358 133.654938,133.211639 127.616089,131.507858 
	C121.366791,129.744690 115.157135,127.841042 108.929764,126.000145 
	C93.811272,121.530922 78.692558,117.062447 63.303471,112.513718 
	C63.545864,113.256096 63.554089,113.639801 63.750092,113.830544 
	C79.029884,128.700027 94.319412,143.559525 109.623650,158.403839 
	C111.704071,160.421753 113.771324,162.466888 112.953407,165.708939 
	C112.177589,168.784134 109.514786,169.537857 106.867744,170.154175 
	C99.412704,171.889999 91.947815,173.583466 84.492226,175.316986 
	C70.597992,178.547592 56.707588,181.794693 41.618134,185.314224 
	C44.364914,186.096329 45.915462,186.570236 47.482944,186.979218 
	C67.140633,192.108429 86.809982,197.193268 106.455353,202.369156 
	C113.501427,204.225571 114.654778,208.329559 109.428482,213.332855 
	C102.330597,220.127884 95.003426,226.682892 87.806183,233.374817 
	C79.180649,241.394760 70.588394,249.450516 61.981728,257.490753 
	C72.204781,255.816864 81.982147,253.468979 91.549278,250.252151 
	C100.353699,247.291794 106.613297,251.212402 108.201309,260.406647 
	C108.686905,263.218140 109.221497,266.021210 109.733650,268.828125 
	C115.418114,257.330078 120.042580,245.758987 124.841629,234.260757 
	C126.285088,230.802353 127.007919,227.337936 126.989265,223.597549 
	C126.912003,208.100998 126.977654,192.603760 126.922951,177.107025 
	C126.908226,172.936508 128.024506,169.315353 130.779083,166.082489 
	C135.712936,160.291946 141.903992,156.830566 149.176254,154.747467 
	C164.346725,150.401947 179.894165,148.618179 195.541672,148.387024 
	C205.468674,148.240356 215.536469,148.924927 224.961624,152.962784 
	C232.966568,156.392212 237.423004,161.996475 237.121994,171.082016 
	C236.879349,178.405746 237.171326,185.745758 237.043930,193.075363 
	C236.983810,196.534515 237.796524,199.524185 239.683121,202.475372 
	C248.566742,216.371994 257.281281,230.376633 266.076935,244.329620 
	C271.644012,253.160965 277.247620,261.969299 282.830811,270.781647 
	C284.562622,269.831726 284.716797,268.396301 285.223663,267.230316 
	C289.746246,256.826752 293.860291,254.958206 304.794800,258.336700 
	C308.688660,259.539825 312.620728,260.619202 316.979584,261.883911 
	C316.264130,259.202484 314.638306,258.209808 313.368134,256.963562 
	C299.217468,243.079636 284.997864,229.265488 270.910187,215.318069 
	C266.187439,210.642334 267.341766,206.501328 273.723297,204.810959 
	C279.352478,203.319885 285.061737,202.131042 290.735352,200.807510 
	C306.539612,197.120743 322.343719,193.433319 338.147888,189.746155 
	C336.120667,188.354340 334.083588,187.768661 332.033112,187.234360 
	C312.862427,182.239136 293.676270,177.302368 274.524475,172.235840 
	C268.111359,170.539276 266.954895,166.331116 271.565094,161.734848 
	C275.338318,157.973038 279.286682,154.385315 283.195496,150.761459 
	C295.480957,139.371597 307.784332,128.001114 321.146759,115.636795 
	C298.963745,121.535027 278.241119,127.059158 257.507538,132.542023 
	C254.505280,133.335968 251.375519,134.794098 248.585800,132.005798 
	C245.735535,129.156967 247.423553,126.133202 248.328354,123.144417 
	C254.405060,103.071510 260.475464,82.996689 266.273682,62.494099 
M108.044182,300.534729 
	C101.642395,306.778961 100.121826,314.885529 99.244133,323.286346 
	C98.827194,327.277100 101.890144,328.212799 104.391037,329.744324 
	C107.146965,331.432068 108.254883,328.975983 109.726067,327.597198 
	C111.181740,326.232971 112.470207,324.692261 113.875519,323.272003 
	C119.679588,317.406250 124.177589,317.400909 130.131546,323.226593 
	C138.173767,331.095551 138.173752,331.095551 147.239883,324.655640 
	C152.210587,321.124847 156.135864,320.442383 159.839874,324.522400 
	C165.832779,331.123596 171.575241,331.385437 178.250931,326.248627 
	C178.379974,326.149384 178.546783,326.096680 178.700012,326.031799 
	C185.449844,323.172607 191.766785,326.994141 192.167252,334.300812 
	C192.358414,337.788330 192.311798,341.296997 192.200211,344.790527 
	C192.104248,347.794952 193.431366,349.006805 196.377411,348.934113 
	C200.205444,348.839630 204.037964,348.933105 207.868546,348.934174 
	C220.217392,348.937592 220.217407,348.935516 220.590469,336.670044 
	C220.874252,327.340607 226.239792,323.613495 234.346283,328.256989 
	C241.970795,332.624359 248.422714,332.397919 255.310486,327.356812 
	C260.013245,323.914886 265.119904,323.844635 270.421997,326.401215 
	C273.558624,327.913666 276.947937,328.898315 280.210144,330.155273 
	C282.908813,331.195099 284.829193,330.945160 284.963043,327.473663 
	C285.297607,318.798615 285.210876,310.176636 281.854370,301.949890 
	C280.306580,298.156342 277.763489,295.659851 273.577606,294.789215 
	C267.002380,293.421600 260.998108,290.551086 255.095352,287.407013 
	C247.769531,283.504883 241.019791,278.689331 233.374039,273.518829 
	C232.204102,280.585205 231.185730,286.918762 230.101456,293.241028 
	C228.591019,302.048309 224.218613,308.637573 215.657211,312.122772 
	C203.080048,317.242706 182.041351,313.104462 174.317902,297.226501 
	C171.090714,290.592041 168.496445,283.806549 166.744720,276.665527 
	C166.368134,275.130371 166.457016,273.366364 164.770828,272.099854 
	C159.581390,276.023712 154.728455,280.343811 148.917740,283.341888 
	C139.686096,288.104980 129.853516,291.207672 119.966309,294.173096 
	C115.779503,295.428802 111.720749,296.837280 108.044182,300.534729 
M176.270294,189.583282 
	C193.515656,183.485748 210.775208,184.818466 227.862808,190.296951 
	C228.253311,189.037247 228.518951,188.570862 228.524750,188.101273 
	C228.582382,183.442123 228.608627,178.782471 228.621460,174.122910 
	C228.649323,164.011688 226.651871,161.692062 216.619690,159.017441 
	C206.288879,156.263214 195.777435,156.823837 185.347183,157.314255 
	C172.375946,157.924118 159.538681,159.949265 147.216125,164.291428 
	C138.798218,167.257690 135.372223,172.311905 135.357346,181.063782 
	C135.342087,190.051331 135.325241,199.039062 135.375427,208.026337 
	C135.385208,209.777222 134.889938,211.672943 136.305115,213.329697 
	C149.153671,205.051636 160.947433,195.104645 176.270294,189.583282 
M227.386505,204.387726 
	C227.966187,200.471054 225.840820,198.572449 222.399948,197.531906 
	C205.532059,192.430939 188.928345,192.542435 172.705261,200.023712 
	C165.016129,203.569550 163.836197,205.932755 164.562134,214.472824 
	C165.729721,228.208786 170.240509,240.751251 177.625214,252.319565 
	C179.202896,254.791016 180.452347,257.539032 183.273865,259.544586 
	C188.661423,252.093399 197.105789,250.331253 204.779541,248.668198 
	C213.236313,246.835419 220.558334,251.644928 226.048615,258.229614 
	C227.754715,256.787872 227.715546,255.424591 227.759445,254.097702 
	C228.073120,244.617737 229.080200,235.161484 228.666809,225.656326 
	C228.130829,213.332397 228.634399,213.549973 214.956802,214.677094 
	C214.629196,214.704102 214.314407,214.867050 213.986252,214.909821 
	C211.093140,215.286850 210.032211,216.957321 210.372559,219.781921 
	C210.889832,224.074615 211.223022,228.390823 211.800827,232.674606 
	C212.773727,239.887756 207.826706,244.925995 200.510513,244.193787 
	C198.110107,243.953537 196.813568,242.967331 196.794632,240.486053 
	C196.777313,238.216263 196.791138,235.902756 199.890320,235.826233 
	C203.326828,235.741409 203.375565,233.833405 203.031143,231.113235 
	C202.446854,226.498489 202.072037,221.841797 201.915329,217.192429 
	C201.740631,212.008789 204.473129,208.747864 209.391647,207.295883 
	C212.930420,206.251205 216.550690,205.862915 220.244904,205.827728 
	C222.510513,205.806122 224.919525,206.629990 227.386505,204.387726 
M149.088928,214.647263 
	C142.269363,218.734207 137.672165,224.605026 134.723602,231.962341 
	C128.108429,248.468582 121.333130,264.910583 114.682999,281.402954 
	C114.097794,282.854218 112.900093,284.308441 114.173943,286.706543 
	C118.914795,286.283447 123.412376,284.140411 128.067184,282.735809 
	C139.658630,279.238098 150.132767,273.932770 159.208618,265.573425 
	C164.325867,260.860199 163.461533,255.900345 163.075607,250.204422 
	C162.759308,245.535889 158.994705,245.563126 156.476471,243.794907 
	C155.932693,243.413055 155.343826,243.095093 154.802612,242.709915 
	C145.720947,236.246140 145.268311,223.890442 153.998047,217.076324 
	C156.154282,215.393250 156.184586,213.650833 155.452606,211.448425 
	C155.028122,211.448425 154.635956,211.328629 154.391052,211.467865 
	C152.805023,212.369568 151.251099,213.327713 149.088928,214.647263 
M240.362289,268.085876 
	C253.090881,277.280731 266.343964,285.412018 283.619324,288.901062 
	C268.844696,262.818146 252.356796,239.022888 237.317490,214.117188 
	C235.983521,215.553955 236.486053,216.736984 236.592575,217.814163 
	C237.926636,231.303650 236.880173,244.774551 235.711349,258.180328 
	C235.321945,262.646576 235.815735,265.601318 240.362289,268.085876 
M224.133636,276.912323 
	C224.353317,275.781403 224.270950,274.711151 222.745209,275.292175 
	C214.342575,278.492157 205.598831,276.877197 197.003281,277.122223 
	C189.755569,277.328857 183.738144,274.399384 179.084229,268.792267 
	C177.327988,266.676361 175.602905,264.534607 173.558304,262.030762 
	C173.087112,269.601318 176.722626,282.675842 180.729065,291.408661 
	C184.602280,299.851074 191.267212,303.996613 199.963394,305.535339 
	C210.557999,307.409973 219.606491,302.321106 221.456146,293.341949 
	C222.528702,288.135193 223.166931,282.839020 224.133636,276.912323 
M183.816910,339.785858 
	C183.575623,337.899567 184.491318,335.790192 182.727371,334.070709 
	C180.781097,333.986450 179.290329,335.156586 177.694061,335.955536 
	C166.902069,341.356903 166.829956,341.453491 157.789215,333.366852 
	C155.099289,330.960785 152.892975,330.232483 150.172195,333.015533 
	C149.249695,333.959106 148.109116,334.689240 147.069778,335.518860 
	C138.693710,342.204834 137.216583,342.081696 129.565811,334.539215 
	C120.336906,325.440948 123.140060,325.778473 114.084099,335.030670 
	C108.128677,341.115173 108.331848,341.307281 100.875542,337.919037 
	C100.639992,337.811981 100.260689,338.021240 99.956192,338.081482 
	C97.680656,347.976227 98.387634,348.937378 107.947617,348.940826 
	C123.914658,348.946564 139.881699,348.949646 155.848740,348.951630 
	C163.000641,348.952515 170.163956,348.701294 177.300476,349.031525 
	C182.157791,349.256287 184.673767,347.917267 183.824493,342.666473 
	C183.719666,342.018250 183.811508,341.338196 183.816910,339.785858 
M229.076996,341.661407 
	C229.175858,348.881683 229.175827,348.898651 236.150986,348.909180 
	C249.947800,348.929993 263.744720,348.958710 277.541443,348.923584 
	C282.540497,348.910858 283.598480,347.445862 282.926483,342.529633 
	C282.619110,340.281128 281.120819,339.694305 279.444946,338.823792 
	C269.482269,333.648621 259.740601,331.441772 249.992859,339.491791 
	C247.083954,341.894073 243.498322,341.527832 240.068878,339.889557 
	C236.828400,338.341492 233.494873,336.988159 230.149948,335.526337 
	C228.850021,337.497498 229.215347,339.195648 229.076996,341.661407 
M216.762756,260.643707 
	C208.276794,254.707962 193.878952,257.793457 189.823624,266.416809 
	C195.722015,270.000824 215.363449,269.806824 220.372269,266.069672 
	C220.193024,263.909637 218.394165,262.741150 216.762756,260.643707 
M158.603043,234.615540 
	C160.466568,231.364258 157.578888,229.095718 156.886215,226.361221 
	C155.821167,229.244629 156.015121,231.921417 158.603043,234.615540 
z"/>
<path fill="#000000" opacity="1.000000" stroke="none" 
	d="
M170.937744,319.884369 
	C158.582413,316.015472 151.934891,306.561737 146.033188,296.336823 
	C144.831055,294.254028 145.626541,292.885223 147.651855,291.982117 
	C149.643341,291.094055 151.613632,289.933167 153.332352,292.503632 
	C155.456558,295.680511 157.541946,298.895386 159.866135,301.923431 
	C162.719421,305.640808 166.133972,308.772278 170.310699,311.045135 
	C174.865265,313.523590 175.020554,315.278839 170.937744,319.884369 
z"/>
<path fill="#000000" opacity="1.000000" stroke="none" 
	d="
M232.356796,319.564453 
	C230.057098,315.767822 229.950165,313.007629 234.436325,311.014557 
	C239.563599,308.736664 243.335785,304.620728 246.282867,299.929718 
	C248.163544,296.936188 249.964645,296.820221 252.773300,298.613617 
	C255.954636,300.644897 254.828873,302.518646 253.183182,304.728638 
	C249.290756,309.955597 245.090256,314.865387 239.254608,318.014709 
	C237.250076,319.096466 235.198303,320.379425 232.356796,319.564453 
z"/>
<path fill="#000000" opacity="1.000000" stroke="none" 
	d="
M179.176178,220.356033 
	C175.247025,220.564835 174.575760,218.484406 174.652542,215.609161 
	C174.729416,212.730179 176.495026,211.975540 178.908585,211.957062 
	C182.216415,211.931717 185.524750,211.955460 188.832764,211.977020 
	C191.694061,211.995651 193.055878,213.437546 192.990891,216.313812 
	C192.924911,219.233978 191.428925,220.436005 188.583282,220.361710 
	C185.607880,220.284012 182.628647,220.353653 179.176178,220.356033 
z"/>
</svg>